Coordinates
version=1
nRows=14
nColumns=24
inDegrees=yes

Units are S.I. units (second, meters, Newtons, ...)
Angles are in degrees.

endheader
time	pelvis_tilt	pelvis_list	pelvis_rotation	pelvis_tx	pelvis_ty	pelvis_tz	hip_flexion_r	hip_adduction_r	hip_rotation_r	knee_angle_r	ankle_angle_r	subtalar_angle_r	mtp_angle_r	hip_flexion_l	hip_adduction_l	hip_rotation_l	knee_angle_l	ankle_angle_l	subtalar_angle_l	mtp_angle_l	lumbar_extension	lumbar_bending	lumbar_rotation
      0.91616667	      0.62591726	      0.48050856	     -0.56326827	     -0.17602522	      0.97603120	      0.30632698	    -12.30199721	      3.15200139	     -5.46921391	    -12.59522193	     18.17774605	     -1.97728690	     -2.59330298	     25.19436116	      2.47040894	     -2.48602219	    -11.66656091	      0.92995291	     -3.73691536	     -3.30440483	     -0.71679158	      3.43264126	      8.20153173
      0.92033333	      0.60105403	      0.57605864	     -0.59245613	     -0.16994835	      0.97554266	      0.30604036	    -12.26294037	      2.98740590	     -5.38178315	    -13.37148201	     18.18729744	     -2.09947167	     -2.57837936	     25.06865934	      2.65535925	     -2.40799034	    -11.67722576	      0.66609936	     -3.69561749	     -3.20874085	     -0.62517997	      3.31032901	      8.19180328
      0.92450000	      0.51671609	      0.64662074	     -0.63377644	     -0.16392451	      0.97501175	      0.30572203	    -12.08939291	      2.83740269	     -5.28278604	    -14.28350661	     18.28129475	     -2.14798544	     -2.52359581	     24.99544396	      2.82801747	     -2.18823906	    -11.72408070	      0.34155399	     -3.91759003	     -2.98363206	     -0.46524089	      3.25374715	      8.22247318
      0.92866667	      0.46404072	      0.74266929	     -0.65854801	     -0.15786638	      0.97456396	      0.30539170	    -11.92634889	      2.65959958	     -5.21927028	    -15.23730672	     18.27437050	     -2.21051675	     -2.43619812	     24.90148768	      3.02855311	     -1.98328542	    -11.85945433	     -0.00850268	     -4.14764124	     -2.70761833	     -0.34752335	      3.14954490	      8.23084733
      0.93283333	      0.41396704	      0.85653056	     -0.68050787	     -0.15176256	      0.97417371	      0.30504869	    -11.74232382	      2.46155956	     -5.13876816	    -16.23574956	     18.22022859	     -2.30340017	     -2.33080814	     24.80250788	      3.24626754	     -1.77842592	    -12.04752136	     -0.36422143	     -4.36127054	     -2.45214784	     -0.22951450	      3.03274750	      8.22659522
      0.93700000	      0.34764131	      0.95568579	     -0.69578379	     -0.14567116	      0.97379399	      0.30471586	    -11.49794380	      2.28080168	     -5.05844085	    -17.30744717	     18.10630181	     -2.41310257	     -2.20494341	     24.73534071	      3.44805622	     -1.56006009	    -12.30776965	     -0.71858721	     -4.61340938	     -2.20996180	     -0.08421387	      2.91094304	      8.21591760
      0.94116667	      0.34390588	      1.10495192	     -0.68184131	     -0.13953005	      0.97350525	      0.30428104	    -11.27379583	      2.01806912	     -5.15172527	    -18.47239586	     17.94618856	     -2.33093284	      0.17025333	     24.59984405	      3.71614623	     -1.33645966	    -12.59927217	     -1.13163966	     -4.97507816	      1.41013798	     -0.03302413	      2.74523109	      8.16567947
      0.94533333	      0.27296284	      1.20500600	     -0.70320520	     -0.13341480	      0.97322712	      0.30396149	    -10.97205087	      1.84344571	     -4.96714605	    -19.61806491	     17.65267302	     -2.57465110	      0.23625244	     24.54224119	      3.91090679	     -1.11239330	    -12.94318400	     -1.49954533	     -5.26356360	      1.42985501	      0.12749337	      2.63387959	      8.16662195
      0.94950000	      0.20877894	      1.31656173	     -0.69813480	     -0.12731413	      0.97295928	      0.30358157	    -10.61504186	      1.64115628	     -4.89977941	    -20.88177602	     17.37474942	     -2.70380546	      0.37343715	     24.49266387	      4.13007338	     -0.86198281	    -13.34086773	     -1.84588452	     -5.65383229	      1.46985137	      0.26374637	      2.50470549	      8.13542590
      0.95366667	      0.14618241	      1.45009632	     -0.69583101	     -0.12119183	      0.97273957	      0.30318423	    -10.21544317	      1.40396549	     -4.85261319	    -22.21801729	     17.01476424	     -2.78888102	      0.54706541	     24.42729257	      4.36883944	     -0.61518547	    -13.73254206	     -2.18606949	     -6.01559187	      1.51331887	      0.40808320	      2.35315266	      8.09019495
      0.95783333	      0.10267417	      1.59270006	     -0.67645088	     -0.11508093	      0.97256514	      0.30275575	     -9.79731492	      1.15087771	     -4.84241822	    -23.61405191	     16.58372509	     -2.82834642	      0.80147526	     24.35920186	      4.62184314	     -0.37543795	    -14.17551528	     -2.50618256	     -6.44999657	      1.56693612	      0.51901004	      2.18702444	      8.03620008
      0.96200000	      0.04926557	      1.74335623	     -0.65682738	     -0.10897818	      0.97240408	      0.30231575	     -9.32174121	      0.88032981	     -4.84492329	    -25.08116764	     16.07079613	     -2.84841705	      1.13754349	     24.30186963	      4.88026131	     -0.14241127	    -14.63257613	     -2.79122714	     -6.87754860	      1.62466051	      0.64571786	      2.01479367	      7.97388616
      0.96616667	      0.02286147	      1.92708074	     -0.63210614	     -0.10284528	      0.97229319	      0.30183396	     -8.83496099	      0.54712754	     -4.92299326	    -26.60041489	     15.35873375	     -2.84264850	      7.19367043	     24.20599076	      5.17046283	      0.05906566	    -15.08259595	     -3.02608727	     -7.25236087	      2.44896217	      0.74614023	      1.80176316	      7.88183762
      0.97033333	      0.00229160	      2.08801825	     -0.60437198	     -0.09676803	      0.97224314	      0.30139160	     -8.32418164	      0.25910472	     -4.91436984	    -28.15806301	     14.64953743	     -2.93551751	      7.26090793	     24.12095011	      5.43246338	      0.25467097	    -15.57465467	     -3.21865101	     -7.64674712	      2.43324851	      0.82969954	      1.61038601	      7.82338353
